<svg width="25" height="20" viewBox="0 0 25 20" fill="none" xmlns="http://www.w3.org/2000/svg">
<path d="M2.5 20C1.8125 20 1.22396 19.7552 0.734375 19.2656C0.244792 18.776 0 18.1875 0 17.5V2.5C0 1.8125 0.244792 1.22396 0.734375 0.734375C1.22396 0.244792 1.8125 0 2.5 0H16.25C16.6458 0 17.0208 0.0885417 17.375 0.265625C17.7292 0.442708 18.0208 0.6875 18.25 1L25 10L18.25 19C18.0208 19.3125 17.7292 19.5573 17.375 19.7344C17.0208 19.9115 16.6458 20 16.25 20H2.5ZM2.5 17.5H16.25L21.875 10L16.25 2.5H2.5V17.5Z" fill="#00BCFF"/>
</svg>
